<svg width="95" height="95" viewBox="0 0 95 95" fill="none" xmlns="http://www.w3.org/2000/svg">
<path fill-rule="evenodd" clip-rule="evenodd" d="M47.75 87.5C69.9795 87.5 88 69.4795 88 47.25C88 25.0205 69.9795 7 47.75 7C25.5205 7 7.5 25.0205 7.5 47.25C7.5 69.4795 25.5205 87.5 47.75 87.5ZM47.75 94.5C73.8455 94.5 95 73.3455 95 47.25C95 21.1545 73.8455 0 47.75 0C21.6545 0 0.5 21.1545 0.5 47.25C0.5 73.3455 21.6545 94.5 47.75 94.5Z" fill="#D9D9D9"/>
<path fill-rule="evenodd" clip-rule="evenodd" d="M47.75 54.5C51.7541 54.5 55 51.2541 55 47.25C55 43.2459 51.7541 40 47.75 40C43.7459 40 40.5 43.2459 40.5 47.25C40.5 51.2541 43.7459 54.5 47.75 54.5ZM47.75 61.5C55.6201 61.5 62 55.1201 62 47.25C62 39.3799 55.6201 33 47.75 33C39.8799 33 33.5 39.3799 33.5 47.25C33.5 55.1201 39.8799 61.5 47.75 61.5Z" fill="#D9D9D9"/>
<path fill-rule="evenodd" clip-rule="evenodd" d="M38 50.25H6V43.25H38V50.25Z" fill="#D9D9D9"/>
<path fill-rule="evenodd" clip-rule="evenodd" d="M92.5 50.25H60.5V43.25H92.5V50.25Z" fill="#D9D9D9"/>
</svg>
